<?xml version="1.0" encoding="UTF-8" standalone="no"?><!DOCTYPE svg PUBLIC "-//W3C//DTD SVG 1.1//EN" "http://www.w3.org/Graphics/SVG/1.1/DTD/svg11.dtd"><svg width="100%" height="100%" viewBox="0 0 335 491" version="1.1" xmlns="http://www.w3.org/2000/svg" xmlns:xlink="http://www.w3.org/1999/xlink" xml:space="preserve" xmlns:serif="http://www.serif.com/" style="fill-rule:evenodd;clip-rule:evenodd;stroke-linejoin:round;stroke-miterlimit:2;"><g id="Background"><path d="M126.612,0.367l43,-0c1.488,0.28 126.803,8.054 159.628,114.618c14.417,46.804 7.539,124.847 -88.755,159.537c-22.403,8.071 -63.55,18.408 -63.542,14.326c0.036,-18.231 8.203,-62.488 26.69,-68.921c1.985,-0.691 56.163,-10.368 57.61,-73.071c0.768,-33.272 -28.267,-66.639 -78.603,-62.509c-9.052,0.743 -10.381,2.171 -10.63,-0.501c-0.887,-9.518 1.099,-32.895 -42.334,-44.239c-46.112,-12.044 -88.129,19.989 -94.749,10.99c-10.284,-13.982 38.197,-44.629 85.636,-49.103c3.164,-0.298 2.995,-0.557 6.048,-1.125Z" style="fill-opacity:1;"/><path d="M225.146,153.867c-7.927,50.224 -52.787,33.525 -112.642,53.684c-27.905,9.398 -37.567,21.916 -47.771,-5.734c-24.909,-67.5 0.61,-144.825 59.955,-131.277c34.273,7.824 31.217,43.737 33.852,42.959c5.975,-1.765 65.181,-19.252 66.605,40.368Z" style="fill-opacity:1;"/><path d="M159.081,408.886c-1.707,19.792 -1.64,38.993 -26.656,61.767c-15.067,13.717 -12.49,-5.857 -12.49,-73.786c0,-140.093 -5.219,-157.118 49.706,-170.895c2.567,-0.644 8.781,-3.522 5.467,1.128c-19.389,27.2 -15.521,69.63 -16.026,181.787Z" style="fill-opacity:1;"/><path d="M107.077,417.891c-0.504,5.63 -4.492,50.214 -30.63,63.676c-9.901,5.1 -8.474,-4.917 -8.472,-114.7c0.001,-98.377 -4.111,-118.23 54.633,-130.105c5.573,-1.127 -10.657,11.287 -14.203,52.085c-2.217,25.506 -0.662,40.891 -1.328,129.044Z" style="fill-opacity:1;"/><path d="M55.131,434.824c-1.849,10.758 -2.148,31.208 -26.812,52.692c-13.651,11.892 -11.173,-5.464 -11.173,-70.649c0,-126.172 -5.959,-146.105 42.372,-162.271c12.518,-4.187 13.702,-3.674 13.241,-2.696c-14.516,30.749 -16.818,31.125 -16.818,109.966c0,59.061 0.136,58.966 -0.809,72.958Z" style="fill-opacity:1;"/></g></svg>