<?xml version="1.0" encoding="utf-8"?>
<!-- Generator: Adobe Illustrator 27.0.1, SVG Export Plug-In . SVG Version: 6.00 Build 0)  -->
<svg version="1.1" id="Camada_1" xmlns:svg="http://www.w3.org/2000/svg"
	 xmlns="http://www.w3.org/2000/svg" xmlns:xlink="http://www.w3.org/1999/xlink" x="0px" y="0px" viewBox="0 0 344.1 232.4"
	 style="enable-background:new 0 0 344.1 232.4;" xml:space="preserve">
<style type="text/css">
	.st0{fill:#00DB37;}
</style>
<path d="M0,80.5h7.5v14.7c0,7.5,4.5,11.8,12.3,11.8c3.1,0,5.8-0.7,8.6-2.2v-10c-1.5,1.2-3.6,2-5.5,2c-2.7,0-4.4-1.4-4.4-3.8V80.5
	h9.8V70h-9.8v-6.8h-1.6L0,79V80.5z"/>
<path d="M43.7,106.2V85c0-3.6,2.3-6,5.8-6c3.3,0,5,2,5,5.8v21.4h11v-23c0-8.6-4.7-13.9-12.3-13.9c-4.1,0-7.5,1.6-9.5,4.4h-0.3V58.8
	H32.7v47.4H43.7z"/>
<path d="M87.2,69.3C76.4,69.3,69,77,69,88.3c0,11.6,7.6,18.7,20,18.7c4,0,7.8-0.8,11.2-2.2V94.7c-3.5,2.1-6.6,3-10.2,3
	c-5.3,0-8.6-1.9-9.9-5.8h24.5v-1C104.7,77.3,98.2,69.3,87.2,69.3z M86.8,78.4c3.4,0,6.2,2.3,6.6,5.6H80.1
	C80.6,80.7,83.3,78.4,86.8,78.4z"/>
<path d="M4.5,173.7l4.9,27.5c7.6,3.3,15.7,5,24.4,5c7.4,0,13.9-1.2,19.4-3.4c2.6-1.1,5-2.4,7-3.9c2.7-2,4.9-4.5,6.7-7.3
	c2.6-4.2,3.9-9.3,3.9-15.1c0-7.3-2-13.3-6.2-17.9c-4.1-4.5-10.1-7.7-18-9.5l-10.2-2.4c-3.3-0.8-4.9-2.4-4.9-4.9
	c0-3.9,3.7-5.9,10.5-5.9c8.3,0,16.6,3.1,23.6,8.8V119c-6.9-3.4-15.2-5.2-23.9-5.2c-8,0-15.2,1.6-21.1,4.8
	c-7.7,4.2-14.5,11.5-14.5,24.7c0,7,1.9,12.8,6.1,17.2c3.7,3.9,9,6.8,15.6,8.5l10.8,2.8c4.9,1.2,6.8,2.9,6.8,5.8
	c0,4.4-4.2,6.8-11.9,6.8C23.8,184.2,13.3,180.6,4.5,173.7L4.5,173.7z"/>
<path d="M75.6,115.5v89h24.6v-89H75.6z"/>
<path d="M127.4,204.5l5-29.2l17.7,29.1h2l17.8-29.4l5.1,29.5h24.3l-16.4-90.7h-1.6l-29.8,49.1l-29.8-49.1h-1.8l-16.4,90.7
	L127.4,204.5z"/>
<path d="M239.3,149.1l-10.3-2.4c-3.3-0.8-4.9-2.4-4.9-4.9c0-3.9,3.7-5.9,10.5-5.9c8.3,0,16.6,3.1,23.6,8.8V119
	c-6.9-3.4-15.2-5.2-23.8-5.2c-21.8,0-35.7,11.5-35.7,29.4c0,13.2,7.5,22,21.8,25.7l10.9,2.8c4.9,1.2,6.8,2.9,6.8,5.8
	c0,4.4-4.2,6.8-12,6.8c-9,0-18.7-3.2-26.8-9l4.9,27.2c7,2.5,14.3,3.8,22.1,3.8c23.1,0,37.2-11.1,37.2-29.7
	C263.6,162.1,255.3,152.7,239.3,149.1z"/>
<path class="st0" d="M151.3,0l-36,70l36,70.1l36-70L151.3,0z M145.5,27.5h0.7L140,69.2l1.8,2.3h18.9l1.8-2.3l-6.2-41.7h0.7
	l11.6,41.3l2,2.5l11.7-0.6v0.7L171,76.2l-2.2,2.8l-11.7,36.1h-0.8l6.1-35.7l-1.6-2.1h-19l-1.6,2.1l6.1,35.7h-0.8L133.8,79l-2.2-2.8
	l-11.5-4.9v-0.7l11.7,0.6l2-2.5L145.5,27.5z"/>
<path class="st0" d="M327.9,179.8c0,0,11.8,0,16.2,0c0,8.3,0,16.7,0,25c-4.7,0-16,0-16,0s0,8.5-0.1,11.7c-8.3,0-16.7,0-25,0
	c0-3.1,0-11.7,0-11.7h-48.7c0,0,2.8-2.3,3.8-3.1c7-5.9,10.5-13.5,10.8-22.5c0.2-5,0-9.9-2-14.6c-1-2.3-4.2-7.8-4.2-7.8l23-50.2h25.7
	v3.3l-32.3,69.8l23.8-0.1l0.2-30.4h24.7"/>
</svg>
